<?xml version="1.0" encoding="UTF-8" standalone="no"?>
<!-- Created with Inkscape (http://www.inkscape.org/) -->

<svg
   xmlns:dc="http://purl.org/dc/elements/1.1/"
   xmlns:cc="http://creativecommons.org/ns#"
   xmlns:rdf="http://www.w3.org/1999/02/22-rdf-syntax-ns#"
   xmlns:svg="http://www.w3.org/2000/svg"
   xmlns="http://www.w3.org/2000/svg"
   xmlns:sodipodi="http://sodipodi.sourceforge.net/DTD/sodipodi-0.dtd"
   xmlns:inkscape="http://www.inkscape.org/namespaces/inkscape"
   width="744.09448819"
   height="1052.3622047"
   id="svg2"
   version="1.1"
   inkscape:version="0.48.4 r9939"
   inkscape:export-filename="/home/daniel/heron.png"
   inkscape:export-xdpi="90"
   inkscape:export-ydpi="90"
   sodipodi:docname="New document 1">
  <defs
     id="defs4" />
  <sodipodi:namedview
     id="base"
     pagecolor="#ffffff"
     bordercolor="#666666"
     borderopacity="1.0"
     inkscape:pageopacity="0.0"
     inkscape:pageshadow="2"
     inkscape:zoom="1.979899"
     inkscape:cx="299.00554"
     inkscape:cy="729.65747"
     inkscape:document-units="px"
     inkscape:current-layer="layer1"
     showgrid="false"
     inkscape:window-width="1920"
     inkscape:window-height="1056"
     inkscape:window-x="0"
     inkscape:window-y="143"
     inkscape:window-maximized="1" />
  <metadata
     id="metadata7">
    <rdf:RDF>
      <cc:Work
         rdf:about="">
        <dc:format>image/svg+xml</dc:format>
        <dc:type
           rdf:resource="http://purl.org/dc/dcmitype/StillImage" />
        <dc:title></dc:title>
      </cc:Work>
    </rdf:RDF>
  </metadata>
  <g
     inkscape:label="Layer 1"
     inkscape:groupmode="layer"
     id="layer1">
    <path
       style="fill:#ff9955;stroke:#000000;stroke-width:0;stroke-linecap:butt;stroke-linejoin:miter;stroke-opacity:1;fill-opacity:1;stroke-miterlimit:4;stroke-dasharray:none"
       d="m 680,400.21932 -225,-119.28571 -27.85714,26.42857 14.28571,25.71429 z"
       id="path2996"
       inkscape:connector-curvature="0" />
    <path
       style="fill:#ffffff;stroke:#000000;stroke-width:0;stroke-linecap:butt;stroke-linejoin:miter;stroke-opacity:1;stroke-miterlimit:4;stroke-dasharray:none"
       d="m 455.71429,280.21932 c 0,0 -56.7627,-65.81602 -96.42858,-72.85714 -39.82316,-7.06904 -84.3602,10.25227 -116.07142,35.35714 -23.00469,18.21216 -38.50699,47.30505 -44.28572,76.07143 -5.03706,25.07437 -0.61713,52.80402 10,76.07143 10.50252,23.01626 50.35714,56.78572 50.35714,56.78572 0,0 38.26053,14.22991 58.92858,14.23495 12.64933,0.003 20.65706,-7.14532 36.07142,-6.73495 9.92037,0.26411 7.70327,19.64313 5.35715,29.28571 -2.66836,10.96699 -6.91909,21.62707 -20.71429,26.78571 -12.87054,4.81287 -32.85416,-3.97695 -45,-13.92857 -11.94982,-9.79101 -11.28247,-29.72728 -22.14286,-40.71428 -18.69608,-18.91404 -44.78579,-29.47283 -69.64285,-38.92857 -17.54805,-6.67535 -36.32269,-14.05401 -55,-12.14286 -39.97018,4.08993 -110.000003,49.28571 -110.000003,49.28571 l 0.714286,80.71429 425.714287,0 c 0,0 15.00411,-50.59354 13.57143,-76.42857 -1.53929,-27.75746 -7.58053,-57.25935 -23.57143,-80 -9.32953,-13.26752 -24.86431,-21.27877 -39.27084,-28.72988 -16.50798,-8.53798 -34.0989,-18.64723 -52.87202,-17.69869 -18.29144,0.9242 -30.97183,24.10504 -49.28571,24.28571 -7.15957,0.0706 -15.15579,-3.38385 -19.45116,-9.11222 -5.26397,-7.0201 -9.13881,-18.87003 -4.04061,-26.01143 4.17347,-5.84607 14.03769,-3.4618 21.2132,-3.78807 44.14287,-2.00719 132.07745,11.36422 132.07745,11.36422 l -14.89975,-25.50635 z"
       id="path3766"
       inkscape:connector-curvature="0"
       sodipodi:nodetypes="csssscssssssaacccaaasaaaaccc" />
    <path
       style="fill:none;stroke:#000000;stroke-width:10;stroke-linecap:butt;stroke-linejoin:miter;stroke-miterlimit:4;stroke-opacity:1;stroke-dasharray:none"
       d="m 340.92648,209.38988 c 0,0 -30.09562,4.53352 -47.98225,9.59645 -41.27317,11.68265 -76.11103,36.31247 -109.09647,65.65992 -14.46345,12.86827 -30.66306,34.12709 -33.33503,55.55839 -2.24045,17.9702 15.65736,52.02285 15.65736,52.02285"
       id="path3768"
       inkscape:connector-curvature="0"
       sodipodi:nodetypes="csssc" />
    <path
       style="fill:#000000;stroke:#000000;stroke-width:1px;stroke-linecap:butt;stroke-linejoin:miter;stroke-opacity:1;fill-opacity:1"
       d="m 387.89858,288.68686 -25.25382,1.51523 64.14469,16.66751 60.10408,-10.10152 -32.32488,-17.17259 -12.12183,7.07106 -34.85027,-10.6066 -11.61675,-9.59645 -22.22336,2.52538 z"
       id="path3774"
       inkscape:connector-curvature="0" />
    <path
       sodipodi:type="arc"
       style="opacity:1;stroke-width:10;stroke-linejoin:miter;stroke-miterlimit:4;stroke-dasharray:none;fill:#d4aa00"
       id="path3770"
       sodipodi:cx="390.67648"
       sodipodi:cy="279.59549"
       sodipodi:rx="11.111678"
       sodipodi:ry="11.111678"
       d="m 401.78816,279.59549 a 11.111678,11.111678 0 1 1 -22.22335,0 11.111678,11.111678 0 1 1 22.22335,0 z"
       transform="translate(0,-1.767767)" />
    <path
       sodipodi:type="arc"
       style="fill:#000000;stroke-width:10;stroke-linejoin:miter;stroke-miterlimit:4;stroke-dasharray:none"
       id="path3772"
       sodipodi:cx="392.31799"
       sodipodi:cy="277.82773"
       sodipodi:rx="3.661803"
       sodipodi:ry="3.2829957"
       d="m 395.9798,277.82773 a 3.661803,3.2829957 0 1 1 -7.32361,0 3.661803,3.2829957 0 1 1 7.32361,0 z" />
    <path
       style="fill:#000000;stroke:#000000;stroke-width:1px;stroke-linecap:butt;stroke-linejoin:miter;stroke-opacity:1"
       d="m 250.01276,249.81629 c 41.8972,-20.80877 85.8183,1.66402 119.198,12.62691 12.8212,4.21086 25.47042,-6.68405 40.4061,-2.52538 3.13239,0.87218 5.89681,-6.856 3.53553,-9.09138 -11.02694,-10.43896 -39.04894,-22.83842 -60.10408,-30.80965 -51.75032,-19.59205 -135.05642,45.70307 -103.03555,29.7995 z"
       id="path3776"
       inkscape:connector-curvature="0"
       sodipodi:nodetypes="ssssss" />
  </g>
</svg>
